<svg width="150" height="136" viewBox="0 0 150 136" fill="none" xmlns="http://www.w3.org/2000/svg">
<path d="M97.2433 57.0648V63.8871C97.2433 65.771 95.7112 67.2982 93.8212 67.2982H86.9771C85.0872 67.2982 83.5551 65.771 83.5551 63.8871V57.0648C83.5551 55.1808 85.0872 53.6536 86.9771 53.6536H93.8212C95.7112 53.6536 97.2433 55.1808 97.2433 57.0648ZM64.7339 53.6536H57.8898C55.9999 53.6536 54.4678 55.1808 54.4678 57.0648V63.8871C54.4678 65.771 55.9999 67.2982 57.8898 67.2982H64.7339C66.6238 67.2982 68.1559 65.771 68.1559 63.8871V57.0648C68.1559 55.1808 66.6238 53.6536 64.7339 53.6536ZM35.6465 53.6536H28.8025C26.9125 53.6536 25.3804 55.1808 25.3804 57.0648V63.8871C25.3804 65.771 26.9125 67.2982 28.8025 67.2982H35.6465C37.5365 67.2982 39.0686 65.771 39.0686 63.8871V57.0648C39.0686 55.1808 37.5365 53.6536 35.6465 53.6536ZM143.091 131.087C142.994 133.059 141.55 134.708 139.602 135.07C136.227 135.698 132.068 136 127.565 136C119.746 136 110.889 135.089 103.281 133.384C98.5592 134.551 93.6717 135.142 88.7342 135.142C74.4095 135.142 60.5778 130.132 49.6309 121.032C48.6262 120.839 47.6418 120.633 46.7105 120.401C39.0894 122.099 30.2436 123.006 22.4489 123.006C17.9274 123.006 13.7617 122.701 10.3898 122.068C8.4432 121.702 7.00286 120.051 6.90927 118.078C6.81568 116.105 8.09398 114.326 9.99886 113.78C16.2598 111.984 19.1788 109.45 20.7629 106.894C7.52592 95.2744 0 78.759 0 61.0703C0 44.774 6.37132 29.438 17.939 17.8878C29.5319 6.35107 44.9177 0 61.266 0C75.6274 0 89.4951 5.02907 100.46 14.1616C112.451 16.4824 123.355 22.2266 132.041 30.8862C143.62 42.4106 150 57.7482 150 74.0711C150 91.7508 142.473 108.262 129.236 119.88C130.818 122.435 133.739 124.972 140.008 126.783C141.913 127.332 143.188 129.114 143.091 131.087ZM61.266 113.613C75.3468 113.613 88.5855 108.149 98.5407 98.2259C108.494 88.303 113.977 75.1072 113.977 61.0703C113.977 47.0493 108.494 33.8527 98.5375 23.9124C97.6669 23.0446 96.7529 22.2025 95.7487 21.3431C86.1911 13.0743 73.9499 8.5279 61.266 8.5279C47.2002 8.5279 33.9615 13.9936 23.9895 23.9173C14.0374 33.8527 8.5551 47.0493 8.5551 61.0703C8.5551 77.2658 15.8906 92.3204 28.6798 102.373C30.1268 103.511 30.6815 105.445 30.0532 107.172C29.0406 109.961 27.6136 112.366 25.7272 114.425C32.3792 114.199 39.6359 113.314 45.7883 111.862C46.485 111.697 47.2136 111.71 47.9036 111.899C49.2303 112.26 50.689 112.58 52.2429 112.848C55.1638 113.356 58.1981 113.613 61.266 113.613ZM141.445 74.0711C141.445 60.0284 135.958 46.8344 125.994 36.9181C121.885 32.822 117.198 29.4869 112.103 26.972C118.883 36.9768 122.532 48.7473 122.532 61.0703C122.532 77.3849 116.161 92.7218 104.59 104.256C94.3706 114.442 81.1749 120.578 66.9573 121.875C73.7405 124.951 81.1501 126.614 88.7342 126.614C93.2925 126.614 97.7956 126.03 102.12 124.876C102.808 124.693 103.529 124.683 104.217 124.847C110.351 126.303 117.613 127.192 124.278 127.419C122.385 125.355 120.956 122.946 119.945 120.153C119.32 118.425 119.873 116.493 121.32 115.357C134.11 105.305 141.445 90.2576 141.445 74.0711Z" fill="#53D1B9"/>
</svg>
