<svg width="20" height="20" viewBox="0 0 20 20" fill="none" xmlns="http://www.w3.org/2000/svg">
<path d="M4.33317 8.66671C4.4165 8.66671 4.58317 8.66671 4.6665 8.75004C4.9165 8.91671 4.99984 9.33337 4.83317 9.58337C3.49984 11.75 2.6665 14.1667 2.4165 16.5834C2.4165 16.8334 2.49984 17.1667 2.6665 17.3334C2.83317 17.5834 3.08317 17.6667 3.33317 17.6667H5.9165C6.4165 17.6667 6.9165 17.25 6.9165 16.75C6.99984 15.9167 7.24984 15.0834 7.49984 14.25C7.6665 13.8334 7.58317 13.4167 7.24984 13.1667L6.33317 12.1667C6.08317 11.9167 6.08317 11.5 6.33317 11.25C6.58317 11 6.99984 11 7.24984 11.25L8.33317 12.3334C8.99984 13 9.1665 13.9167 8.83317 14.75C8.49984 15.5 8.33317 16.25 8.24984 17C8.08317 18.0834 7.08317 19 5.9165 19H3.4165C3.33317 19 3.24984 19 3.24984 19C2.58317 18.9167 2.08317 18.5834 1.6665 18.1667C1.24984 17.6667 1.08317 17.0834 1.1665 16.5C1.4165 13.8334 2.33317 11.25 3.83317 9.00004C3.9165 8.83337 4.08317 8.66671 4.33317 8.66671Z" fill="white"/>
<path d="M19.5832 19.5834C19.3332 19.8334 18.9165 19.8334 18.6665 19.5834L8.49984 9.33337L0.416504 1.25004C0.166504 1.00004 0.166504 0.583374 0.416504 0.333374C0.499837 0.25004 0.666504 0.166708 0.833171 0.166708C0.999837 0.166708 1.1665 0.25004 1.24984 0.333374L6.58317 5.66671C7.33317 5.00004 8.1665 4.33337 8.99984 3.75004C11.2498 2.33337 13.8332 1.41671 16.4998 1.08337C16.5832 1.08337 16.6665 1.08337 16.7498 1.08337C17.3332 1.08337 17.9165 1.33337 18.3332 1.75004C18.7498 2.16671 18.9998 2.75004 18.9998 3.33337V5.83337C18.9998 7.00004 18.1665 8.00004 16.9998 8.16671C16.2498 8.25004 15.4998 8.41671 14.8332 8.75004C13.9998 9.08337 13.0832 8.83337 12.4165 8.25004L11.6665 7.50004C10.9998 7.91671 10.4165 8.41671 9.83317 8.91671L19.5832 18.75C19.8332 19 19.8332 19.3334 19.5832 19.5834ZM11.4165 6.16671C11.6665 6.00004 11.9998 6.08337 12.1665 6.25004L13.2498 7.33337C13.4998 7.58337 13.9998 7.75004 14.3332 7.58337C15.1665 7.25004 15.9998 7.08337 16.8332 7.00004C17.3332 6.91671 17.7498 6.50004 17.7498 5.91671V3.41671C17.7498 3.16671 17.6665 2.91671 17.4165 2.66671C17.1665 2.41671 16.9998 2.33337 16.6665 2.33337H16.5832C14.1665 2.58337 11.7498 3.41671 9.6665 4.83337C8.9165 5.33337 8.1665 5.91671 7.49984 6.58337L8.99984 8.08337C9.6665 7.33337 10.4998 6.75004 11.4165 6.16671Z" fill="white"/>
</svg>
