<svg width="70" height="70" viewBox="0 0 70 70" fill="none" xmlns="http://www.w3.org/2000/svg">
<rect width="70" height="70" rx="35" fill="#53D1B9"/>
<path d="M41.611 21.4375C42.0647 20.9693 42.607 20.5961 43.2064 20.3395C43.8057 20.0829 44.4501 19.9481 45.102 19.943C45.754 19.9379 46.4004 20.0625 47.0037 20.3096C47.607 20.5568 48.1551 20.9214 48.6161 21.3824C49.0771 21.8434 49.4418 22.3915 49.6889 22.9949C49.936 23.5982 50.0607 24.2446 50.0555 24.8965C50.0504 25.5485 49.9156 26.1929 49.6591 26.7922C49.4025 27.3915 49.0292 27.9338 48.561 28.3875L46.636 30.3125L39.686 23.3625L41.611 21.4375ZM38.361 24.6875L23.1273 39.9213C22.5773 40.4713 22.1773 41.1538 21.9673 41.9038L20.0335 48.81C19.9889 48.9701 19.9875 49.1392 20.0297 49.3C20.0719 49.4608 20.1561 49.6074 20.2736 49.7249C20.3911 49.8425 20.5378 49.9266 20.6986 49.9688C20.8593 50.011 21.0284 50.0097 21.1885 49.965L28.0935 48.0313C28.844 47.8228 29.5276 47.4231 30.0773 46.8713L45.3123 31.6388L38.361 24.6875Z" fill="white"/>
</svg>
