<svg width="90" height="90" viewBox="0 0 90 90" fill="none" xmlns="http://www.w3.org/2000/svg">
<rect width="90" height="90" rx="45" fill="#53D1B9"/>
<path fill-rule="evenodd" clip-rule="evenodd" d="M42.1894 25.2104C43.0474 24.7273 44.0154 24.4735 45.0001 24.4735C45.9848 24.4735 46.9528 24.7273 47.8108 25.2104C48.6688 25.6934 49.3879 26.3895 49.8985 27.2314L49.903 27.2388L49.903 27.2388L67.5489 56.6971L67.5617 56.7186L67.5615 56.7187C68.0618 57.585 68.3265 58.5672 68.3293 59.5676C68.3321 60.568 68.0729 61.5516 67.5775 62.4207C67.0821 63.2899 66.3678 64.0141 65.5056 64.5214C64.6434 65.0287 63.6634 65.3015 62.6631 65.3125L62.6459 65.3127V65.3126H27.3543H27.3371L27.3371 65.3125C26.3368 65.3015 25.3568 65.0287 24.4946 64.5214C23.6324 64.0141 22.9181 63.2898 22.4227 62.4207C21.9273 61.5516 21.6681 60.568 21.6709 59.5676C21.6737 58.5672 21.9384 57.585 22.4387 56.7187L22.4512 56.697L22.4514 56.6971L40.0972 27.2388L41.4377 28.0418L40.1017 27.2314C40.6123 26.3895 41.3314 25.6934 42.1894 25.2104ZM42.7755 28.8488L42.7735 28.8521L25.1394 58.291C24.9155 58.6825 24.7972 59.1253 24.7959 59.5764C24.7946 60.0311 24.9124 60.4782 25.1376 60.8732C25.3628 61.2683 25.6875 61.5975 26.0794 61.8281C26.4691 62.0574 26.9118 62.1813 27.3638 62.1876H62.6364C63.0884 62.1813 63.5311 62.0574 63.9208 61.8281C64.3127 61.5975 64.6374 61.2683 64.8626 60.8732C65.0878 60.4782 65.2056 60.0311 65.2043 59.5764C65.203 59.1253 65.0846 58.6824 64.8608 58.2909L47.2267 28.8521L47.2247 28.8488C46.9927 28.4676 46.6666 28.1524 46.2777 27.9334C45.8877 27.7139 45.4477 27.5985 45.0001 27.5985C44.5525 27.5985 44.1125 27.7139 43.7225 27.9334C43.3336 28.1524 43.0075 28.4676 42.7755 28.8488ZM45.0001 37.1875C45.863 37.1875 46.5626 37.8871 46.5626 38.75V47.0834C46.5626 47.9463 45.863 48.6459 45.0001 48.6459C44.1371 48.6459 43.4376 47.9463 43.4376 47.0834V38.75C43.4376 37.8871 44.1371 37.1875 45.0001 37.1875ZM45.0001 53.8542C44.1371 53.8542 43.4376 54.5537 43.4376 55.4167C43.4376 56.2796 44.1371 56.9792 45.0001 56.9792H45.0209C45.8838 56.9792 46.5834 56.2796 46.5834 55.4167C46.5834 54.5537 45.8838 53.8542 45.0209 53.8542H45.0001Z" fill="white"/>
</svg>
