<svg width="160" height="240" viewBox="0 0 160 240" fill="none" xmlns="http://www.w3.org/2000/svg">
<g clip-path="url(#clip0_1_10716)">
<g clip-path="url(#clip1_1_10716)">
<path d="M160 135.733L153.332 142.259C153.332 142.259 152.503 143.26 151.477 144.521C150.45 145.781 149.88 147.628 149.88 151C149.88 154.373 150.091 168.787 147.999 176.047C145.907 183.306 140.584 201.246 124.603 213.934C108.623 226.623 93.4885 229.873 80 229.873C66.5115 229.873 53.887 227.462 40.2249 217.333C26.5627 207.203 18.5366 195.079 13.7765 181.596C9.01639 168.113 10.2827 152.026 10.2827 139.034C10.2827 126.041 10.3873 91.111 10.3873 75.185C10.3873 59.2589 18.1476 46.4185 21.4787 41.6978C24.8098 36.9772 33.583 24.8309 46.5025 18.5059C59.4221 12.1809 68.6756 10.0662 80 10.0662C91.3244 10.0662 106.649 13.7897 114.576 19.2195C122.502 24.6489 134.086 34.0343 138.687 42.4558C143.288 50.8773 149.597 62.6215 149.597 74.7864C149.597 86.9513 149.833 106.64 149.833 106.64C149.833 106.64 150.338 112.295 148.922 115.191C147.506 118.087 146.772 119.427 142.121 123.98C137.47 128.532 131.646 134.632 130.807 139.934C129.968 145.236 129.812 156.509 129.812 162.912C129.812 169.315 125.695 182.521 121.131 188.385C116.102 194.847 109.394 201.943 101.656 204.999C93.9187 208.054 91.114 209.897 80.0004 209.897C68.8869 209.897 58.2125 205.933 50.9485 200.443C43.684 194.953 37.4352 187.083 35.1364 181.395C32.8373 175.707 30.2177 170.308 30.2177 159.358L30.2177 80.6219C30.2177 74.0799 31.5753 64.0749 36.9389 55.2762C42.3021 46.4775 48.7291 40.0225 54.8415 36.8884C60.9539 33.7543 67.1877 30.1054 80.0009 30.1054C92.8141 30.1054 104.91 34.9321 112.952 42.4088C120.995 49.8854 126.018 58.8865 127.61 64.9475C129.201 71.0084 129.842 73.6339 129.889 81.837C129.936 90.0402 129.921 96.055 129.921 99.4189C129.921 102.783 128.116 107.281 124.66 110.726C119.904 115.468 113.774 120.596 111.589 126.993C109.404 133.391 109.919 135.215 109.921 139.355C109.924 143.496 109.92 153.684 109.92 159.62C109.92 165.557 107.584 173.469 104.037 177.661C99.4081 183.131 93.3963 189.924 79.813 189.924C66.2297 189.924 59.3902 182.404 55.8978 177.868C52.4054 173.332 50.1155 167.583 50.1155 158.209C50.1155 148.835 50.1283 92.1708 50.1283 84.9281C50.1283 77.6853 50.3011 71.5716 53.9588 65.2022C57.6161 58.8328 65.5934 50.0661 80.0018 50.0661C94.4101 50.0661 101.735 58.2412 105.463 64.0754C109.192 69.9096 109.958 76.6597 109.914 81.7687C109.869 86.8777 110.157 90.3868 108.203 93.6429C105.895 97.4875 102.976 100.046 100.564 102.402C98.152 104.758 93.0862 109.181 91.7276 114.066C90.3691 118.952 90.1432 121.741 90.1432 127.991L90.1432 156.185C90.1432 162.694 90.1343 163.873 87.4168 166.75C84.5199 169.818 81.8096 169.906 80.0013 169.906C78.1931 169.906 75.5966 169.751 72.6337 166.783C69.6707 163.815 70.1125 159.08 70.1125 155.875C70.1125 152.67 70.1036 86.0606 70.1036 81.9462C70.1036 77.8318 70.727 75.7335 72.0049 74.1886C73.2823 72.6438 75.2576 70.103 80.0018 70.103C84.7459 70.103 88.0602 73.436 88.8409 75.4166C89.6217 77.3973 89.9509 79.0007 89.9509 81.0062C89.9509 83.0118 90.5012 87.9792 88.7386 90.8576C86.9755 93.7361 83.6479 96.7415 80.8941 96.7415C78.1404 96.7415 79.6641 96.7415 78.9552 96.7415C78.2463 96.7415 77.5985 96.8249 77.5985 98.1004L77.5985 104.637C77.5985 105.627 77.8807 105.949 79.5343 105.949C81.1879 105.949 82.3719 106.229 85.5018 105.307C88.6318 104.385 91.5602 101.784 92.4388 100.804C93.3175 99.8232 100.035 93.7689 100.035 84.4909C100.035 81.7656 99.9682 81.8583 99.9682 80.2292C99.9682 76.7032 98.9354 73.7448 98.0917 71.8649C97.2476 69.985 94.8115 65.8958 91.8725 64.0292C88.9335 62.1626 85.5324 59.9144 80.0022 59.9144C74.472 59.9144 70.2924 62.1733 67.251 64.6217C64.2097 67.0701 61.5866 70.8655 60.6827 74.8259C59.7788 78.7864 59.9946 81.6622 59.9946 83.0468L59.9946 157.392C59.9946 161.084 60.3322 164.647 61.3278 167.236C62.4019 170.031 65.5168 174.587 68.9445 176.538C72.3727 178.49 75.6249 180.08 80.0022 180.08C84.3795 180.08 89.0222 178.352 92.4078 175.505C95.7934 172.658 97.4563 169.634 98.9287 166.211C100.401 162.788 100.067 157.891 100.067 154.552C100.067 151.214 100.067 130.692 100.067 126.645C100.067 122.598 100.029 119.871 101.048 117.783C102.067 115.696 101.914 115.178 104.878 112.176C107.842 109.174 114.828 102.293 116.211 99.782C117.594 97.271 119.868 93.3664 119.868 88.4958C119.868 83.6251 120.496 75.0203 118.212 68.2759C115.927 61.5316 110.036 51.9455 103.659 47.6851C97.2827 43.4246 89.0957 39.9488 80.0027 39.9488C70.9096 39.9488 61.8099 43.9576 56.4702 47.9163C51.1302 51.8745 46.7826 57.4215 44.9677 61.2298C43.1528 65.038 40.169 72.2266 40.169 77.447L40.169 155.261C40.169 161.36 40.3746 167.41 42.3495 173.194C44.3243 178.978 48.8549 186.08 55.0971 191.192C61.3393 196.304 70.805 199.968 80.0026 199.968C89.2003 199.968 100.719 196.214 109.281 186.779C117.842 177.345 119.932 165.427 119.932 160.522L119.932 137.297C119.932 133.533 120.678 129.784 122.12 127.896C123.562 126.008 131.741 117.594 134.029 115.302C136.317 113.01 138.889 107.015 139.236 105.237C139.583 103.458 139.983 98.8376 139.983 95.2739C139.983 91.7102 139.915 84.2886 139.915 80.8301C139.915 77.3716 139.591 70.8295 138.193 65.6784C136.795 60.5277 134.759 54.3292 128.569 44.8297C122.379 35.3298 109.845 27.353 102.465 24.4182C95.0845 21.4833 87.357 19.9047 79.9841 19.9047C72.6111 19.9047 64.8362 20.8931 53.7648 26.1942C42.6938 31.4954 33.828 41.6064 29.4702 48.2673C25.112 54.9283 21.3923 66.3379 20.8451 70.9365C20.2979 75.5351 20.0737 79.7667 20.0737 86.4485L20.0737 157.447C20.0737 161.787 20.4684 171.667 22.636 177.427C24.8036 183.187 28.3257 192.706 36.502 201.145C44.6783 209.583 59.3197 220.026 80.0022 220.026C100.685 220.026 112.336 210.318 120.937 203.417C129.539 196.517 137.535 178.401 138.546 172.396C139.557 166.391 139.983 163.047 139.983 156.207C139.983 149.367 139.898 142.959 141.043 140.809C142.188 138.658 142.806 136.81 146.523 133.716C150.24 130.622 155.177 124.876 156.43 122.548C157.684 120.221 159.863 116.677 159.894 109.527C159.924 102.377 159.92 84.7732 159.92 78.8334C159.92 72.8936 158.259 63.8269 157.967 62.4045C157.675 60.9821 153.472 46.257 148.88 39.3959C144.288 32.5348 138.142 23.7378 127.885 15.9718C117.626 8.20404 100.507 5.59183e-06 80 4.4509e-06C59.493 3.30997e-06 42.6113 8.44191 33.6122 15.1752C24.6131 21.9085 22.6072 24.8007 18.1515 29.923C13.6959 35.0449 9.10812 43.4348 6.61663 49.0746C4.1247 54.7139 -3.77494e-06 67.8503 -4.49e-06 80.7027L-8.72898e-06 156.894C-9.23861e-06 166.054 1.72316 178.318 4.54386 185.407C7.36456 192.496 11.5548 203.623 21.7352 214.306C31.9156 224.99 51.3605 240 80.2042 240C109.048 240 131.937 224.946 145.305 206.045C158.674 187.143 160 169.472 160 157.888L160 135.733Z" fill="white"/>
<path d="M85.1396 79.8763L85.1396 86.5563C85.1396 88.7349 83.0017 90.8438 80.2895 90.8438C77.5774 90.8438 75.167 89.1676 75.167 86.5758L75.167 79.7085C75.167 78.0696 76.7754 75.5825 80.1894 75.5825C83.6034 75.5825 85.1396 78.0221 85.1396 79.8763Z" fill="white"/>
</g>
</g>
<defs>
<clipPath id="clip0_1_10716">
<rect width="240" height="160" fill="white" transform="translate(0 240) rotate(-90)"/>
</clipPath>
<clipPath id="clip1_1_10716">
<rect width="160" height="240" fill="white"/>
</clipPath>
</defs>
</svg>
