<svg width="24" height="28" viewBox="0 0 24 28" fill="none" xmlns="http://www.w3.org/2000/svg">
<g clip-path="url(#clip0_2311_21346)">
<path d="M20.1345 2.17948C18.8426 0.706982 16.5073 0.0756836 13.5197 0.0756836H4.84897C4.55338 0.0756945 4.26749 0.181151 4.0427 0.373093C3.8179 0.565035 3.66896 0.830872 3.62263 1.12281L0.0122986 24.0204C-0.059463 24.4719 0.290166 24.8808 0.747809 24.8808H6.10082L7.44519 16.3537L7.40346 16.6207C7.49924 16.018 8.01474 15.5734 8.62517 15.5734H11.1689C16.1661 15.5734 20.0789 13.5437 21.2219 7.67212C21.2559 7.49847 21.2853 7.32945 21.3107 7.16432C21.1664 7.08792 21.1664 7.08792 21.3107 7.16432C21.651 4.99413 21.3083 3.5169 20.1345 2.17948Z" fill="#27346A"/>
<path d="M9.49345 6.38254C9.63979 6.31286 9.79985 6.27675 9.96194 6.27685H16.7596C17.5646 6.27685 18.3154 6.32923 19.0015 6.43966C19.1935 6.47027 19.3845 6.50681 19.5742 6.54925C19.8431 6.60858 20.1089 6.68121 20.3706 6.76685C20.7079 6.8795 21.022 7.01069 21.3107 7.16432C21.651 4.9933 21.3083 3.5169 20.1345 2.17948C18.8418 0.706982 16.5073 0.0756836 13.5197 0.0756836H4.84823C4.2377 0.0756836 3.71831 0.52016 3.62263 1.12281L0.0122991 24.0196C-0.0594625 24.4718 0.290167 24.8802 0.747067 24.8802H6.10082L8.88997 7.19288C8.91739 7.01902 8.98665 6.85444 9.09177 6.71328C9.1969 6.57212 9.33474 6.45862 9.49345 6.38254Z" fill="#032F86"/>
<path d="M21.2226 7.67186C20.0796 13.5426 16.1669 15.5731 11.1696 15.5731H8.62513C8.01469 15.5731 7.4991 16.0177 7.40426 16.6205L5.73177 27.2229C5.66928 27.6181 5.97486 27.9761 6.37465 27.9761H10.8871C11.1456 27.9761 11.3956 27.8838 11.5921 27.7159C11.7886 27.5479 11.9188 27.3154 11.9592 27.0601L12.0031 26.8302L12.8536 21.4401L12.9084 21.1422C12.9488 20.8869 13.0789 20.6544 13.2754 20.4865C13.4719 20.3185 13.7219 20.2262 13.9804 20.2262H14.6557C19.0269 20.2262 22.4497 18.4503 23.4499 13.3142C23.8674 11.1679 23.6514 9.37588 22.547 8.11717C22.212 7.73593 21.796 7.42107 21.3114 7.16406C21.2851 7.33002 21.2567 7.49821 21.2226 7.67186Z" fill="#149CDE"/>
<path d="M20.1147 6.68749C19.9364 6.63545 19.7565 6.58938 19.5752 6.54935C19.3854 6.50761 19.1944 6.47131 19.0025 6.4405C18.3157 6.32933 17.5655 6.27686 16.7598 6.27686H9.9629C9.80069 6.27649 9.64051 6.31291 9.49441 6.38339C9.33552 6.45923 9.19752 6.57267 9.09234 6.71387C8.98717 6.85506 8.91801 7.01977 8.89083 7.19372L7.44614 16.3538L7.40442 16.6208C7.49945 16.0181 8.01495 15.5735 8.62548 15.5735H11.17C16.1671 15.5735 20.0799 13.5438 21.2229 7.67222C21.2569 7.49857 21.2855 7.33029 21.3117 7.16442C21.0222 7.01163 20.709 6.8796 20.3716 6.76769C20.2864 6.73947 20.2008 6.71273 20.1147 6.68749" fill="#1F264F"/>
</g>
<defs>
<clipPath id="clip0_2311_21346">
<rect width="23.7351" height="28" fill="white"/>
</clipPath>
</defs>
</svg>
