<svg width="32" height="32" viewBox="0 0 32 32" fill="none" xmlns="http://www.w3.org/2000/svg">
<rect width="32" height="32" rx="16" fill="#53D1B9"/>
<path fill-rule="evenodd" clip-rule="evenodd" d="M23.7753 8.22473C23.9451 8.39451 24.0026 8.64653 23.9233 8.87314L18.0899 25.5398C18.0053 25.7817 17.7815 25.9474 17.5255 25.9578C17.2694 25.9683 17.033 25.8214 16.9289 25.5872L13.6932 18.3068L6.41284 15.0711C6.17867 14.9671 6.03175 14.7306 6.0422 14.4745C6.05265 14.2185 6.21834 13.9948 6.46021 13.9101L23.1269 8.07676C23.3535 7.99745 23.6055 8.05496 23.7753 8.22473ZM14.9121 17.9718L17.4309 23.6389L21.8387 11.0452L14.9121 17.9718ZM20.9548 10.1613L8.3611 14.5691L14.0283 17.0879L20.9548 10.1613Z" fill="white"/>
</svg>
